<?xml version="1.0" standalone="no"?>
<!DOCTYPE svg PUBLIC "-//W3C//DTD SVG 20010904//EN"
 "http://www.w3.org/TR/2001/REC-SVG-20010904/DTD/svg10.dtd">
<svg version="1.0" xmlns="http://www.w3.org/2000/svg"
 width="700.000000pt" height="700.000000pt" viewBox="0 0 700.000000 700.000000"
 preserveAspectRatio="xMidYMid meet">
<metadata>
Created by potrace 1.11, written by Peter Selinger 2001-2013
</metadata>
<g transform="translate(0.000000,700.000000) scale(0.100000,-0.100000)"
fill="#000000" stroke="none">
<path d="M3005 6147 c-108 -43 -164 -148 -136 -252 11 -41 66 -108 111 -135
21 -13 98 -15 493 -18 314 -2 480 1 507 8 51 14 123 83 140 134 29 88 -9 189
-92 243 l-42 28 -475 2 c-350 1 -484 -1 -506 -10z"/>
<path d="M3432 5517 c-18 -7 -48 -25 -67 -40 -96 -76 -97 -231 -2 -314 79 -69
189 -69 272 0 88 72 98 200 23 291 -52 63 -152 91 -226 63z"/>
<path d="M3465 4900 c-74 -16 -146 -81 -165 -150 -6 -19 -10 -181 -10 -362 l0
-328 -692 -1 c-666 0 -773 -2 -845 -14 -18 -3 -50 -8 -70 -11 -118 -18 -292
-75 -418 -136 -306 -150 -574 -410 -729 -708 -68 -131 -100 -215 -136 -355
-36 -144 -43 -209 -44 -390 0 -173 8 -246 46 -400 111 -456 407 -836 813
-1043 129 -66 289 -119 410 -137 22 -3 63 -9 91 -13 96 -16 340 -6 449 17 94
20 204 51 250 71 11 5 49 21 85 36 79 34 235 123 309 175 l54 39 635 0 634 0
81 -54 c229 -152 461 -245 702 -282 64 -10 315 -10 380 -1 28 4 64 9 80 11
193 27 455 142 640 281 119 89 257 234 335 350 19 28 36 52 39 55 23 20 121
221 161 331 31 87 75 265 86 354 12 95 9 372 -5 455 -90 533 -410 964 -898
1209 -111 55 -303 118 -413 135 -159 25 -131 24 -912 25 l-698 1 0 326 c0 228
-4 339 -12 368 -19 63 -91 130 -153 142 -28 6 -63 7 -80 4z m1760 -1273 c142
-36 191 -50 237 -68 57 -22 190 -89 198 -100 3 -3 16 -12 30 -19 70 -37 218
-175 294 -274 91 -120 190 -322 211 -433 3 -16 7 -39 10 -53 2 -14 9 -47 14
-75 14 -73 6 -317 -14 -408 -121 -576 -567 -949 -1116 -933 -238 7 -466 91
-699 257 -53 37 -108 73 -124 78 -18 8 -272 11 -765 11 -826 0 -761 6 -871
-77 -347 -257 -729 -332 -1096 -214 -157 50 -293 137 -424 271 -146 149 -240
315 -294 520 -34 128 -40 181 -39 340 1 154 7 210 38 318 33 115 131 318 178
367 7 7 21 26 32 41 27 39 160 173 215 216 110 85 276 169 405 203 163 44 116
43 1875 41 921 -1 1689 -5 1705 -9z"/>
<path d="M4975 3211 c-200 -52 -278 -289 -148 -449 122 -150 360 -125 457 48
26 47 31 65 31 125 0 80 -14 123 -63 183 -60 75 -185 117 -277 93z"/>
<path d="M1925 3150 c-74 -16 -146 -81 -165 -150 -6 -19 -10 -104 -10 -187 l0
-153 -156 0 c-184 0 -223 -9 -280 -65 -110 -110 -71 -277 79 -340 27 -11 75
-15 196 -15 l159 0 4 -173 c3 -170 4 -174 31 -215 92 -139 293 -131 362 14 23
50 23 49 24 222 l1 152 151 0 c85 0 169 5 190 11 114 35 179 168 134 277 -21
48 -86 109 -133 122 -20 5 -106 10 -189 10 l-153 0 -1 148 c0 81 -2 159 -4
174 -6 47 -60 119 -106 144 -40 20 -100 31 -134 24z"/>
<path d="M4435 2701 c-100 -47 -156 -131 -161 -238 -8 -168 124 -298 292 -289
80 5 144 37 195 96 49 58 68 113 65 192 -6 148 -114 255 -266 264 -56 3 -74
-1 -125 -25z"/>
<path d="M5450 2718 c-61 -25 -77 -35 -111 -66 -59 -55 -84 -114 -84 -202 0
-59 5 -84 23 -120 56 -108 148 -161 267 -156 145 7 256 118 261 262 6 161
-107 285 -265 290 -36 1 -77 -2 -91 -8z"/>
<path d="M2916 2220 c-54 -27 -74 -48 -102 -102 -47 -93 -19 -193 71 -257 47
-34 50 -35 164 -39 135 -5 181 5 235 50 73 60 96 161 56 243 -46 96 -104 123
-265 124 -101 1 -126 -2 -159 -19z"/>
<path d="M3756 2219 c-51 -24 -64 -36 -93 -83 -16 -25 -27 -59 -30 -95 -6 -73
24 -131 92 -181 l49 -35 131 -2 c140 -3 173 6 234 61 114 102 57 307 -96 346
-72 18 -242 11 -287 -11z"/>
<path d="M4961 2228 c-69 -19 -131 -71 -169 -143 -21 -41 -26 -64 -26 -125 0
-81 17 -126 70 -189 87 -103 277 -116 383 -26 83 72 119 196 86 297 -48 147
-192 225 -344 186z"/>
</g>
</svg>
