<?xml version="1.0" standalone="no"?>
<!DOCTYPE svg PUBLIC "-//W3C//DTD SVG 20010904//EN"
 "http://www.w3.org/TR/2001/REC-SVG-20010904/DTD/svg10.dtd">
<svg version="1.0" xmlns="http://www.w3.org/2000/svg"
 width="512.000000pt" height="512.000000pt" viewBox="0 0 512.000000 512.000000"
 preserveAspectRatio="xMidYMid meet">
<metadata>
Created by potrace 1.11, written by Peter Selinger 2001-2013
</metadata>
<g transform="translate(0.000000,512.000000) scale(0.100000,-0.100000)"
fill="#000000" stroke="none">
<path d="M2279 4896 c-2 -2 -33 -6 -69 -10 -109 -10 -151 -17 -270 -43 -767
-167 -1399 -705 -1690 -1438 -18 -44 -33 -87 -35 -95 -2 -8 -12 -42 -23 -75
-41 -123 -89 -373 -88 -453 1 -29 6 -36 36 -47 32 -12 479 -194 525 -214 138
-60 658 -269 687 -276 19 -5 35 -1 56 14 65 46 225 90 330 92 l47 0 135 195
c115 166 296 425 396 569 22 30 29 52 31 100 9 198 102 410 246 558 142 145
296 225 512 265 17 3 80 5 140 5 360 0 696 -229 821 -559 27 -71 29 -78 46
-154 25 -115 13 -309 -28 -434 -98 -300 -363 -531 -674 -590 -45 -9 -106 -16
-135 -16 -57 0 -43 8 -274 -155 -63 -44 -132 -93 -155 -109 -22 -16 -130 -91
-238 -168 l-198 -140 0 -56 c-1 -221 -154 -458 -363 -560 -110 -54 -196 -72
-326 -68 -129 3 -218 28 -320 89 -141 84 -265 243 -301 389 l-12 46 -151 62
c-84 34 -177 72 -207 85 -58 25 -490 201 -527 216 l-22 8 16 -52 c53 -180 162
-407 281 -588 392 -588 1013 -966 1717 -1046 89 -10 417 -10 515 0 419 42 850
214 1198 479 114 87 307 275 395 385 250 312 413 670 483 1055 24 133 32 263
29 448 -2 113 -6 216 -9 229 -3 14 -8 47 -11 74 -3 28 -8 53 -9 56 -2 3 -7 23
-10 45 -40 249 -184 595 -353 844 -47 70 -88 129 -92 132 -3 3 -24 28 -46 55
-54 68 -227 241 -300 301 -33 27 -62 52 -65 56 -21 28 -293 194 -415 254 -211
103 -496 193 -695 218 -25 3 -56 9 -70 12 -27 6 -455 15 -461 10z"/>
<path d="M4722 4437 c-53 -20 -103 -66 -127 -118 -44 -97 -13 -222 70 -279
168 -116 386 10 362 210 -9 78 -53 142 -121 177 -39 20 -142 26 -184 10z m168
-42 c67 -35 101 -91 101 -168 1 -89 -31 -144 -106 -178 -72 -33 -156 -20 -224
35 -42 34 -62 133 -41 208 12 42 76 105 117 114 16 3 33 7 38 9 18 6 88 -6
115 -20z"/>
<path d="M4729 4333 c-4 -40 -1 -214 4 -219 14 -14 27 10 27 50 0 41 1 43 25
38 17 -3 32 -17 46 -44 19 -37 43 -57 56 -45 3 4 -4 22 -16 42 -26 44 -26 51
-2 81 24 31 15 74 -20 91 -26 14 -119 18 -120 6z m109 -37 c31 -19 -11 -67
-56 -63 -19 1 -22 7 -22 39 0 38 1 38 33 35 19 -2 39 -7 45 -11z"/>
<path d="M3175 3749 c-254 -27 -468 -216 -519 -459 -12 -59 -14 -194 -2 -245
44 -199 198 -368 396 -435 86 -29 241 -36 325 -14 211 54 381 219 436 424 24
88 20 242 -9 325 -90 267 -349 434 -627 404z m170 -153 c58 -12 153 -66 202
-115 62 -61 99 -122 118 -198 21 -83 23 -119 9 -194 -72 -388 -589 -491 -808
-161 -89 135 -97 299 -20 452 10 19 45 62 78 96 94 93 195 134 321 129 39 -2
84 -6 100 -9z"/>
<path d="M1664 2178 c-28 -4 -61 -11 -74 -16 -25 -9 -45 0 227 -112 114 -47
171 -90 217 -164 79 -125 76 -282 -6 -397 -43 -60 -83 -93 -155 -127 -50 -23
-71 -27 -148 -27 -88 0 -93 1 -254 67 -91 37 -167 66 -169 63 -10 -9 51 -91
101 -138 265 -245 710 -129 818 213 111 353 -188 695 -557 638z"/>
</g>
</svg>
